<svg xmlns="http://www.w3.org/2000/svg" xmlns:xlink="http://www.w3.org/1999/xlink" width="874" zoomAndPan="magnify" viewBox="0 0 655.5 397.499983" height="530" preserveAspectRatio="xMidYMid meet" version="1.0"><defs><g/><clipPath id="f5fc1f52b2"><path d="M 0.160156 0 L 654.839844 0 L 654.839844 397 L 0.160156 397 Z M 0.160156 0 " clip-rule="nonzero"/></clipPath><clipPath id="6f56911103"><path d="M 468.742188 159.757812 L 555.515625 159.757812 L 555.515625 229.417969 L 468.742188 229.417969 Z M 468.742188 159.757812 " clip-rule="nonzero"/></clipPath></defs><g clip-path="url(#f5fc1f52b2)"><path fill="#ffffff" d="M 0.160156 0 L 654.839844 0 L 654.839844 397 L 0.160156 397 Z M 0.160156 0 " fill-opacity="1" fill-rule="nonzero"/><path fill="#1c1f3b" d="M 0.160156 0 L 654.839844 0 L 654.839844 397 L 0.160156 397 Z M 0.160156 0 " fill-opacity="1" fill-rule="nonzero"/></g><g clip-path="url(#6f56911103)"><path fill="#ffffff" d="M 473.945312 179.546875 C 473.882812 180.300781 473.582031 181.226562 473.050781 182.144531 C 472.523438 183.0625 471.875 183.785156 471.25 184.214844 C 470.703125 184.59375 470.199219 184.730469 469.875 184.542969 C 469.546875 184.355469 469.414062 183.847656 469.46875 183.183594 C 469.527344 182.433594 469.832031 181.507812 470.363281 180.589844 C 470.890625 179.675781 471.539062 178.949219 472.164062 178.519531 C 472.710938 178.144531 473.210938 178.003906 473.539062 178.191406 C 473.867188 178.382812 473.996094 178.886719 473.945312 179.546875 Z M 547.96875 221.226562 L 548.046875 221.273438 C 548.210938 221.382812 548.316406 221.589844 548.375 221.863281 C 548.414062 222.0625 548.238281 222.257812 548.222656 222.519531 C 548.214844 222.640625 548.386719 222.808594 548.371094 222.9375 C 548.347656 223.089844 548.394531 223.273438 548.351562 223.4375 C 548.304688 223.621094 547.933594 223.75 547.867188 223.941406 C 547.796875 224.125 548.011719 224.410156 547.925781 224.601562 C 547.832031 224.804688 547.472656 224.839844 547.355469 225.042969 C 547.289062 225.160156 547.410156 225.382812 547.339844 225.496094 C 547.253906 225.625 547.011719 225.660156 546.921875 225.78125 C 546.777344 225.980469 546.78125 226.253906 546.625 226.421875 C 546.527344 226.527344 546.523438 226.707031 546.425781 226.800781 C 546.226562 226.984375 545.878906 226.992188 545.679688 227.125 C 545.609375 227.167969 545.699219 227.421875 545.632812 227.457031 C 545.199219 227.703125 544.699219 227.65625 544.4375 227.527344 L 544.355469 227.480469 L 495.683594 199.378906 C 495.859375 199.277344 496.03125 199.15625 496.207031 199.027344 C 496.933594 198.472656 497.644531 197.664062 498.214844 196.671875 C 498.785156 195.683594 499.132812 194.660156 499.25 193.753906 C 499.277344 193.539062 499.289062 193.328125 499.292969 193.125 Z M 546.378906 193.835938 C 546.078125 190.789062 546.371094 189.859375 547.589844 187.03125 C 548.703125 184.449219 550.480469 182.40625 549.933594 179.425781 C 549.574219 177.464844 549.679688 179.066406 549.660156 176.921875 C 551.601562 180.660156 551.769531 182.421875 549.609375 186.375 C 547.769531 189.742188 547.535156 190.058594 546.378906 193.835938 Z M 550.910156 216.542969 C 548.941406 212.402344 548.089844 212.359375 545.738281 209.003906 C 543.988281 206.503906 543.902344 206.195312 543.21875 203.300781 C 545.054688 206.589844 545.574219 207.019531 547.78125 209.851562 C 549.753906 212.382812 550.457031 213.402344 550.910156 216.542969 Z M 544.105469 159.757812 C 546.320312 165.082031 548.707031 171.46875 547.527344 177.269531 C 546.953125 180.09375 545.503906 184.09375 544.359375 186.769531 C 544.578125 183.601562 545.339844 181.632812 545.910156 178.621094 C 547.441406 170.535156 544.632812 166.960938 544.105469 159.757812 Z M 543.855469 171.367188 C 543.535156 179.324219 538.320312 184.992188 542.546875 193.863281 C 545.441406 199.9375 554.496094 209.859375 555.398438 214.921875 C 555.996094 218.273438 554.1875 218.511719 552.691406 221.101562 C 553.167969 218.839844 553.820312 219.253906 554.519531 217.65625 C 557.285156 211.332031 539.503906 200.304688 539.695312 187.28125 C 539.757812 182.875 542.417969 175.792969 543.855469 171.367188 Z M 498.632812 191.914062 L 498.191406 191.660156 L 474.195312 177.808594 C 474.109375 177.714844 474.007812 177.636719 473.898438 177.570312 C 473.3125 177.234375 472.535156 177.394531 471.753906 177.933594 C 471.050781 178.421875 470.324219 179.222656 469.742188 180.234375 C 469.160156 181.242188 468.824219 182.273438 468.757812 183.125 C 468.679688 184.070312 468.929688 184.824219 469.515625 185.160156 C 469.628906 185.226562 469.746094 185.273438 469.867188 185.300781 L 493.863281 199.15625 L 494.304688 199.410156 L 543.996094 228.101562 C 544.296875 228.285156 545.785156 229.140625 546.09375 229.3125 L 546.121094 229.324219 C 546.375 229.449219 546.878906 229.570312 547.179688 229.484375 C 547.457031 229.410156 547.53125 229.140625 547.839844 228.96875 C 548.042969 228.851562 548.414062 228.875 548.621094 228.710938 C 548.882812 228.496094 548.882812 228.128906 549.136719 227.839844 C 549.335938 227.613281 549.796875 227.527344 549.980469 227.261719 C 550.089844 227.097656 550.164062 226.871094 550.164062 226.664062 C 550.171875 226.214844 550.691406 226.007812 550.835938 225.640625 C 550.929688 225.394531 550.875 225.070312 550.9375 224.828125 C 551.003906 224.582031 550.796875 224.335938 550.828125 224.105469 C 550.851562 223.929688 551.121094 223.757812 551.125 223.597656 C 551.132812 223.289062 551.101562 223.003906 551.039062 222.75 C 550.933594 222.351562 550.738281 222.03125 550.445312 221.835938 C 550.449219 221.832031 548.488281 220.695312 548.324219 220.605469 L 498.632812 191.914062 " fill-opacity="1" fill-rule="evenodd"/></g><g fill="#f5f5dc" fill-opacity="1"><g transform="translate(103.603297, 221.209903)"><g><path d="M 10.171875 -8.046875 L 10.171875 -14.390625 L 34.609375 -14.390625 L 34.609375 -8.046875 Z M 0.96875 0 L 18.328125 -36.953125 L 26.5625 -36.953125 L 44.09375 0 L 35.8125 0 L 20.609375 -33.296875 L 24.265625 -33.296875 L 9.1875 0 Z M 0.96875 0 "/></g></g></g><g fill="#f5f5dc" fill-opacity="1"><g transform="translate(148.655005, 221.209903)"><g><path d="M 1.421875 -27.875 L 24.265625 -27.875 L 24.265625 -22.21875 L 1.421875 -22.21875 Z M 18.78125 -39.8125 L 24.671875 -39.8125 L 24.671875 -33.8125 L 20.5625 -33.8125 C 19.457031 -33.84375 18.503906 -33.722656 17.703125 -33.453125 C 16.898438 -33.191406 16.289062 -32.707031 15.875 -32 C 15.457031 -31.300781 15.25 -30.304688 15.25 -29.015625 L 15.25 0 L 7.828125 0 L 7.828125 -29.921875 C 7.828125 -32.210938 8.242188 -34.085938 9.078125 -35.546875 C 9.921875 -37.015625 11.160156 -38.09375 12.796875 -38.78125 C 14.429688 -39.46875 16.425781 -39.8125 18.78125 -39.8125 Z M 18.78125 -39.8125 "/></g></g></g><g fill="#f5f5dc" fill-opacity="1"><g transform="translate(174.121501, 221.209903)"><g><path d="M 1.421875 -28.390625 L 23.46875 -28.390625 L 23.46875 -22.609375 L 1.421875 -22.609375 Z M 8.734375 -36.15625 L 16.15625 -36.15625 L 16.15625 0 L 8.734375 0 Z M 8.734375 -36.15625 "/></g></g></g><g fill="#f5f5dc" fill-opacity="1"><g transform="translate(198.902792, 221.209903)"><g><path d="M 29.296875 -9.421875 L 36.5 -9.421875 C 36.1875 -7.484375 35.375 -5.75 34.0625 -4.21875 C 32.75 -2.695312 30.96875 -1.5 28.71875 -0.625 C 26.476562 0.25 23.738281 0.6875 20.5 0.6875 C 16.882812 0.6875 13.6875 0.109375 10.90625 -1.046875 C 8.125 -2.210938 5.953125 -3.898438 4.390625 -6.109375 C 2.835938 -8.316406 2.0625 -10.984375 2.0625 -14.109375 C 2.0625 -17.222656 2.820312 -19.894531 4.34375 -22.125 C 5.863281 -24.351562 7.984375 -26.054688 10.703125 -27.234375 C 13.429688 -28.421875 16.625 -29.015625 20.28125 -29.015625 C 24.007812 -29.015625 27.109375 -28.421875 29.578125 -27.234375 C 32.054688 -26.054688 33.894531 -24.273438 35.09375 -21.890625 C 36.289062 -19.515625 36.796875 -16.484375 36.609375 -12.796875 L 9.53125 -12.796875 C 9.726562 -11.347656 10.269531 -10.03125 11.15625 -8.84375 C 12.050781 -7.664062 13.269531 -6.734375 14.8125 -6.046875 C 16.351562 -5.367188 18.191406 -5.03125 20.328125 -5.03125 C 22.691406 -5.03125 24.660156 -5.4375 26.234375 -6.25 C 27.816406 -7.070312 28.835938 -8.128906 29.296875 -9.421875 Z M 19.9375 -23.359375 C 17.1875 -23.359375 14.953125 -22.757812 13.234375 -21.5625 C 11.523438 -20.363281 10.425781 -18.882812 9.9375 -17.125 L 29.234375 -17.125 C 29.046875 -19.03125 28.140625 -20.546875 26.515625 -21.671875 C 24.898438 -22.796875 22.707031 -23.359375 19.9375 -23.359375 Z M 19.9375 -23.359375 "/></g></g></g><g fill="#f5f5dc" fill-opacity="1"><g transform="translate(237.616428, 221.209903)"><g><path d="M 3.421875 -28.390625 L 10.84375 -28.390625 L 10.84375 0 L 3.421875 0 Z M 21.765625 -22.265625 C 19.628906 -22.265625 17.78125 -21.851562 16.21875 -21.03125 C 14.65625 -20.21875 13.394531 -19.222656 12.4375 -18.046875 C 11.488281 -16.867188 10.828125 -15.726562 10.453125 -14.625 L 10.390625 -17.765625 C 10.429688 -18.222656 10.582031 -18.894531 10.84375 -19.78125 C 11.113281 -20.675781 11.515625 -21.644531 12.046875 -22.6875 C 12.578125 -23.738281 13.28125 -24.75 14.15625 -25.71875 C 15.039062 -26.695312 16.109375 -27.488281 17.359375 -28.09375 C 18.617188 -28.707031 20.085938 -29.015625 21.765625 -29.015625 Z M 21.765625 -22.265625 "/></g></g></g><g fill="#f5f5dc" fill-opacity="1"><g transform="translate(260.513434, 221.209903)"><g><path d="M 40.4375 -5.140625 L 38.09375 -5.203125 L 47.34375 -28.390625 L 55.515625 -28.390625 L 43 0 L 36.03125 0 L 26.90625 -22.90625 L 29.40625 -22.90625 L 19.984375 0 L 13.015625 0 L 0.859375 -28.390625 L 9.015625 -28.390625 L 17.9375 -5.140625 L 15.59375 -5.140625 L 23.921875 -28.390625 L 32.4375 -28.390625 Z M 40.4375 -5.140625 "/></g></g></g><g fill="#f5f5dc" fill-opacity="1"><g transform="translate(316.927997, 221.209903)"><g><path d="M 20.15625 0.6875 C 16.582031 0.6875 13.429688 0.117188 10.703125 -1.015625 C 7.984375 -2.160156 5.863281 -3.828125 4.34375 -6.015625 C 2.820312 -8.210938 2.0625 -10.910156 2.0625 -14.109375 C 2.0625 -17.304688 2.820312 -20.015625 4.34375 -22.234375 C 5.863281 -24.460938 7.984375 -26.148438 10.703125 -27.296875 C 13.429688 -28.441406 16.582031 -29.015625 20.15625 -29.015625 C 23.738281 -29.015625 26.867188 -28.441406 29.546875 -27.296875 C 32.234375 -26.148438 34.335938 -24.460938 35.859375 -22.234375 C 37.390625 -20.015625 38.15625 -17.304688 38.15625 -14.109375 C 38.15625 -10.910156 37.390625 -8.210938 35.859375 -6.015625 C 34.335938 -3.828125 32.234375 -2.160156 29.546875 -1.015625 C 26.867188 0.117188 23.738281 0.6875 20.15625 0.6875 Z M 20.15625 -5.03125 C 22.132812 -5.03125 23.914062 -5.378906 25.5 -6.078125 C 27.082031 -6.785156 28.328125 -7.8125 29.234375 -9.15625 C 30.148438 -10.507812 30.609375 -12.160156 30.609375 -14.109375 C 30.609375 -16.046875 30.148438 -17.707031 29.234375 -19.09375 C 28.328125 -20.488281 27.09375 -21.546875 25.53125 -22.265625 C 23.96875 -22.992188 22.175781 -23.359375 20.15625 -23.359375 C 18.175781 -23.359375 16.382812 -22.992188 14.78125 -22.265625 C 13.1875 -21.546875 11.921875 -20.5 10.984375 -19.125 C 10.054688 -17.757812 9.59375 -16.085938 9.59375 -14.109375 C 9.59375 -12.160156 10.046875 -10.507812 10.953125 -9.15625 C 11.867188 -7.8125 13.125 -6.785156 14.71875 -6.078125 C 16.320312 -5.378906 18.132812 -5.03125 20.15625 -5.03125 Z M 20.15625 -5.03125 "/></g></g></g><g fill="#f5f5dc" fill-opacity="1"><g transform="translate(357.126218, 221.209903)"><g><path d="M 3.421875 -28.390625 L 10.84375 -28.390625 L 10.84375 0 L 3.421875 0 Z M 21.765625 -22.265625 C 19.628906 -22.265625 17.78125 -21.851562 16.21875 -21.03125 C 14.65625 -20.21875 13.394531 -19.222656 12.4375 -18.046875 C 11.488281 -16.867188 10.828125 -15.726562 10.453125 -14.625 L 10.390625 -17.765625 C 10.429688 -18.222656 10.582031 -18.894531 10.84375 -19.78125 C 11.113281 -20.675781 11.515625 -21.644531 12.046875 -22.6875 C 12.578125 -23.738281 13.28125 -24.75 14.15625 -25.71875 C 15.039062 -26.695312 16.109375 -27.488281 17.359375 -28.09375 C 18.617188 -28.707031 20.085938 -29.015625 21.765625 -29.015625 Z M 21.765625 -22.265625 "/></g></g></g><g fill="#f5f5dc" fill-opacity="1"><g transform="translate(380.023234, 221.209903)"><g><path d="M 3.9375 -39.8125 L 11.359375 -39.8125 L 11.359375 0 L 3.9375 0 Z M 35.296875 -28.390625 L 18.390625 -13.484375 L 18.5625 -18.046875 L 36.609375 0 L 27.1875 0 L 11.53125 -15.9375 L 25.1875 -28.390625 Z M 35.296875 -28.390625 "/></g></g></g><g fill="#f5f5dc" fill-opacity="1"><g transform="translate(417.080979, 221.209903)"><g><path d="M 4 -28.390625 L 11.421875 -28.390625 L 11.421875 11.421875 L 4 11.421875 Z M 11.9375 -40.828125 L 11.9375 -34.328125 L 3.3125 -34.328125 L 3.3125 -40.828125 Z M 11.9375 -40.828125 "/></g></g></g><g fill="#f5f5dc" fill-opacity="1"><g transform="translate(432.383721, 221.209903)"><g><path d="M 2.28125 -9.421875 L 9.140625 -9.421875 C 9.554688 -8.128906 10.421875 -7.070312 11.734375 -6.25 C 13.046875 -5.4375 14.769531 -5.03125 16.90625 -5.03125 C 18.351562 -5.03125 19.472656 -5.160156 20.265625 -5.421875 C 21.066406 -5.691406 21.617188 -6.082031 21.921875 -6.59375 C 22.234375 -7.101562 22.390625 -7.6875 22.390625 -8.34375 C 22.390625 -9.132812 22.140625 -9.75 21.640625 -10.1875 C 21.148438 -10.625 20.390625 -10.976562 19.359375 -11.25 C 18.328125 -11.519531 17.015625 -11.769531 15.421875 -12 C 13.816406 -12.257812 12.269531 -12.578125 10.78125 -12.953125 C 9.300781 -13.335938 7.988281 -13.84375 6.84375 -14.46875 C 5.707031 -15.101562 4.804688 -15.90625 4.140625 -16.875 C 3.472656 -17.84375 3.140625 -19.03125 3.140625 -20.4375 C 3.140625 -21.8125 3.472656 -23.03125 4.140625 -24.09375 C 4.804688 -25.164062 5.738281 -26.0625 6.9375 -26.78125 C 8.132812 -27.507812 9.539062 -28.0625 11.15625 -28.4375 C 12.78125 -28.820312 14.523438 -29.015625 16.390625 -29.015625 C 19.203125 -29.015625 21.539062 -28.601562 23.40625 -27.78125 C 25.28125 -26.96875 26.679688 -25.828125 27.609375 -24.359375 C 28.546875 -22.890625 29.015625 -21.203125 29.015625 -19.296875 L 22.4375 -19.296875 C 22.132812 -20.710938 21.523438 -21.734375 20.609375 -22.359375 C 19.703125 -22.984375 18.296875 -23.296875 16.390625 -23.296875 C 14.523438 -23.296875 13.113281 -23.007812 12.15625 -22.4375 C 11.207031 -21.875 10.734375 -21.097656 10.734375 -20.109375 C 10.734375 -19.304688 11.023438 -18.6875 11.609375 -18.25 C 12.203125 -17.8125 13.078125 -17.457031 14.234375 -17.1875 C 15.398438 -16.925781 16.863281 -16.640625 18.625 -16.328125 C 20.101562 -16.023438 21.519531 -15.679688 22.875 -15.296875 C 24.226562 -14.921875 25.4375 -14.4375 26.5 -13.84375 C 27.5625 -13.257812 28.40625 -12.476562 29.03125 -11.5 C 29.664062 -10.53125 29.984375 -9.304688 29.984375 -7.828125 C 29.984375 -5.992188 29.457031 -4.445312 28.40625 -3.1875 C 27.363281 -1.9375 25.867188 -0.976562 23.921875 -0.3125 C 21.984375 0.351562 19.664062 0.6875 16.96875 0.6875 C 14.5625 0.6875 12.492188 0.429688 10.765625 -0.078125 C 9.035156 -0.597656 7.597656 -1.265625 6.453125 -2.078125 C 5.304688 -2.898438 4.421875 -3.773438 3.796875 -4.703125 C 3.171875 -5.640625 2.742188 -6.523438 2.515625 -7.359375 C 2.285156 -8.203125 2.207031 -8.890625 2.28125 -9.421875 Z M 2.28125 -9.421875 "/></g></g></g></svg>